<?xml version="1.0" encoding="iso-8859-1"?>
<!-- Generator: Adobe Illustrator 22.1.0, SVG Export Plug-In . SVG Version: 6.00 Build 0)  -->
<svg xmlns="http://www.w3.org/2000/svg" xmlns:xlink="http://www.w3.org/1999/xlink" version="1.1" id="Layer_3" x="0px" y="0px" viewBox="0 0 64 64" style="enable-background:new 0 0 64 64;" xml:space="preserve" width="512" height="512">
<path d="M62,7h-1V4c0-1.654-1.346-3-3-3s-3,1.346-3,3v3h-2V4c0-1.654-1.346-3-3-3s-3,1.346-3,3v3h-1c-0.553,0-1,0.447-1,1v4  c0,2.757,2.243,5,5,5h1v3c0,0.553,0.447,1,1,1h1v38c0,1.103-0.897,2-2,2s-2-0.897-2-2V31c0-2.206-1.794-4-4-4s-4,1.794-4,4v27  c0,1.654-1.346,3-3,3h-5v-3c0-0.553-0.447-1-1-1h-1.416L22.71,43H31v2h2v-8h-2v3l-6.4-4.8C24.427,35.07,24.217,35,24,35h-2v-4h9v2h2  v-8h-2v3l-6.4-4.8C24.427,23.07,24.217,23,24,23h-2v-4h9v2h2v-8h-2v3l-6.4-4.8C24.427,11.07,24.217,11,24,11h-2V9h1  c0.431,0,0.812-0.275,0.948-0.684l2-6c0.103-0.305,0.051-0.641-0.137-0.901C25.623,1.154,25.321,1,25,1H9  C8.679,1,8.377,1.154,8.188,1.415C8.001,1.676,7.949,2.012,8.052,2.316l2,6C10.188,8.725,10.569,9,11,9h1v2h-2  c-0.217,0-0.427,0.07-0.6,0.2L3,16v-3H1v8h2v-2h9v4h-2c-0.217,0-0.427,0.07-0.6,0.2L3,28v-3H1v8h2v-2h9v4h-2  c-0.217,0-0.427,0.07-0.6,0.2L3,40v-3H1v8h2v-2h8.29L3.416,57H2c-0.553,0-1,0.447-1,1v4c0,0.553,0.447,1,1,1h30h6  c2.757,0,5-2.243,5-5V31c0-1.103,0.897-2,2-2s2,0.897,2,2v28c0,2.206,1.794,4,4,4s4-1.794,4-4V21h1c0.553,0,1-0.447,1-1v-3h1  c2.757,0,5-2.243,5-5V8C63,7.447,62.553,7,62,7z M25.414,57l-7-7l3-3h1.252l5.625,10H25.414z M22.586,57H11.414L17,51.414L22.586,57  z M17,48.586L15.414,47h3.172L17,48.586z M18.001,41H14v-3L18.001,41z M16,37h4v3L16,37z M23.667,37L29,41h-7v-4H23.667z M16,35l4-3  v3H16z M18,29h-4v-3L18,29z M16,25h4v3L16,25z M23.667,25L29,29h-7v-4H23.667z M16,23l4-3v3H16z M18,17h-4v-3L18,17z M15.999,13H20  v3L15.999,13z M23.667,13L29,17h-7v-4H23.667z M10.388,3h13.225l-1.333,4H11.721L10.388,3z M14,9h6v2h-6V9z M5,17l5.333-4H12v4H5z   M18,19l-4,3v-3H18z M5,29l5.333-4H12v4H5z M18,31l-4,3v-3H18z M10.333,37H12v4H5L10.333,37z M20.416,43l1.125,2h-9.081l1.125-2  H20.416z M11.334,47h1.252l3,3l-7,7H5.709L11.334,47z M31,61H3v-2h28V61z M57,4c0-0.552,0.448-1,1-1s1,0.448,1,1v3h-2V4z M49,4  c0-0.552,0.448-1,1-1s1,0.448,1,1v3h-2V4z M61,9v2H47V9H61z M55,19h-2v-2h2V19z M58,15h-5h-2h-1c-1.302,0-2.402-0.839-2.816-2  h13.631C60.402,14.161,59.302,15,58,15z"/>
</svg>
